<?xml version="1.0" standalone="no"?>
<!DOCTYPE svg PUBLIC "-//W3C//DTD SVG 20010904//EN"
 "http://www.w3.org/TR/2001/REC-SVG-20010904/DTD/svg10.dtd">
<svg version="1.0" xmlns="http://www.w3.org/2000/svg"
 width="300.000000pt" height="300.000000pt" viewBox="0 0 300.000000 300.000000"
 preserveAspectRatio="xMidYMid meet">
<metadata>
Created by potrace 1.11, written by Peter Selinger 2001-2013
</metadata>
<g transform="translate(0.000000,300.000000) scale(0.100000,-0.100000)"
fill="#000000" stroke="none">
<path d="M1321 2780 c-85 -50 -160 -98 -167 -108 -10 -12 -13 -61 -14 -178 l0
-160 -65 -34 c-36 -19 -65 -36 -65 -39 0 -2 10 -15 21 -27 12 -13 24 -36 28
-53 l6 -30 70 36 71 35 112 -67 113 -67 -3 -36 c-3 -36 -4 -37 -60 -48 -86
-17 -163 -60 -235 -130 l-65 -63 -34 16 -34 17 0 162 c0 140 -2 164 -17 182
-17 18 -227 146 -303 183 -41 20 -39 20 -160 -50 -52 -31 -112 -65 -133 -76
-21 -11 -51 -32 -67 -47 l-30 -27 0 -191 c0 -227 -14 -201 167 -305 l122 -70
1 -71 0 -72 33 7 c17 4 47 4 65 0 l32 -6 0 71 0 71 114 66 c119 69 115 69 172
33 20 -12 21 -16 9 -66 -20 -87 -6 -218 31 -289 16 -32 12 -49 -12 -49 -19 0
-18 -3 11 -46 14 -20 25 -45 25 -55 0 -23 0 -23 36 -4 15 8 33 11 38 6 111
-86 198 -127 279 -130 14 -1 17 -10 17 -50 l0 -49 36 11 c26 8 43 8 65 0 l29
-11 0 52 0 52 47 12 c58 16 135 60 186 107 l39 35 42 -25 c51 -30 56 -30 56
-6 0 10 11 35 25 55 14 20 25 38 25 40 0 2 -18 11 -40 21 -26 12 -39 23 -36
32 34 88 44 173 33 296 -2 24 5 31 58 61 l60 33 112 -66 112 -66 1 -72 c0 -56
3 -71 13 -67 25 9 72 11 95 2 21 -7 22 -6 22 65 l1 72 122 70 c181 104 167 79
167 303 0 167 -2 192 -17 210 -25 28 -314 194 -338 194 -23 0 -294 -155 -331
-189 -23 -22 -24 -26 -24 -185 l0 -164 -56 -28 c-30 -15 -56 -27 -58 -25 -60
90 -159 168 -256 201 -59 20 -60 20 -60 59 l0 38 112 67 113 66 71 -35 72 -36
6 34 c4 19 18 43 32 54 l25 19 -71 38 -70 38 0 161 c0 114 -4 166 -12 177 -14
17 -212 138 -227 138 -5 0 -11 3 -13 8 -5 12 -85 52 -104 52 -11 0 -88 -41
-173 -90z m259 -98 l78 -48 -32 -18 c-17 -10 -54 -31 -82 -46 l-50 -28 -83 47
-83 48 34 16 c18 9 53 30 78 46 25 16 49 30 53 30 5 1 44 -21 87 -47z m-225
-208 l75 -45 0 -95 0 -95 -42 24 c-24 13 -60 34 -80 47 l-38 22 0 94 c0 52 2
94 5 94 2 0 38 -21 80 -46z m366 9 c1 -37 1 -111 0 -144 -1 -9 -9 -19 -18 -22
-10 -3 -46 -22 -80 -42 l-63 -36 0 95 0 94 73 45 c39 25 75 45 80 46 4 1 7
-16 8 -36z m-995 -285 c86 -49 85 -51 -19 -107 l-64 -34 -76 44 c-42 24 -77
46 -77 49 0 7 141 89 154 90 4 0 42 -19 82 -42z m1700 0 c41 -24 74 -45 74
-48 0 -3 -35 -25 -78 -50 l-77 -46 -77 46 c-43 25 -78 47 -78 50 0 8 133 88
149 89 8 1 47 -18 87 -41z m146 -256 l-3 -97 -74 -43 c-41 -23 -77 -42 -80
-42 -3 0 -4 42 -3 93 l3 92 80 47 c44 27 80 48 80 48 0 0 -1 -44 -3 -98z
m-2066 46 l73 -43 1 -92 c0 -51 -3 -93 -7 -93 -3 0 -39 19 -79 43 l-74 42 0
93 c0 50 3 92 6 92 4 0 40 -19 80 -42z m367 -20 c-1 -35 -2 -76 -2 -93 -1 -27
-10 -35 -76 -72 -41 -24 -77 -43 -80 -43 -3 0 -5 42 -5 93 l0 92 73 41 c39 23
77 42 82 43 6 1 9 -25 8 -61z m1277 53 c0 -5 6 -11 13 -13 6 -2 36 -17 64 -33
l53 -30 0 -92 c0 -51 -3 -93 -7 -93 -3 0 -39 19 -79 43 l-74 42 0 93 c0 75 3
92 15 92 8 0 15 -4 15 -9z"/>
<path d="M567 1375 c-32 -19 -59 -35 -61 -35 -11 0 -193 -114 -203 -128 -16
-20 -18 -374 -3 -402 8 -16 235 -157 315 -197 31 -16 47 -10 187 72 l132 78
73 -37 73 -36 0 24 c0 14 12 39 26 56 15 17 25 32 23 34 -2 2 -32 18 -66 37
l-63 34 0 160 c0 114 -4 166 -12 177 -20 25 -319 198 -343 198 -11 0 -46 -16
-78 -35z m149 -145 c36 -22 70 -40 75 -40 25 0 2 -23 -63 -60 -40 -23 -75 -42
-78 -43 -16 -5 -160 87 -152 95 12 12 135 86 145 87 4 1 37 -17 73 -39z m-210
-216 l74 -46 0 -94 c0 -105 6 -99 -59 -59 -9 6 -35 21 -58 34 l-43 25 0 93 c0
51 3 93 6 93 4 0 40 -21 80 -46z m365 -9 c1 -30 1 -64 1 -75 0 -53 -3 -59 -59
-90 -32 -18 -68 -40 -80 -48 l-23 -14 0 95 0 95 73 45 c39 25 75 45 80 46 4 1
8 -24 8 -54z"/>
<path d="M2259 1372 c-35 -21 -107 -64 -160 -95 -53 -31 -99 -64 -103 -72 -3
-9 -6 -87 -6 -173 l0 -157 -65 -35 c-36 -19 -65 -36 -65 -38 0 -2 11 -18 25
-36 14 -18 25 -43 25 -54 0 -12 3 -22 6 -22 3 0 33 16 65 35 33 19 65 35 71
35 6 0 60 -29 120 -65 60 -36 113 -65 118 -65 4 0 10 -4 12 -9 2 -6 15 -12 29
-15 21 -3 63 17 178 84 84 48 160 95 171 105 19 17 20 32 20 212 0 226 12 202
-139 289 -57 33 -124 71 -149 86 -26 15 -56 27 -68 28 -11 0 -49 -17 -85 -38z
m166 -144 c41 -24 73 -47 72 -51 -1 -5 -26 -22 -54 -37 -29 -16 -62 -36 -75
-44 -22 -14 -28 -12 -100 32 -43 26 -78 49 -78 52 1 6 142 89 153 89 4 1 41
-18 82 -41z m-220 -214 l75 -45 0 -94 0 -94 -80 46 -80 47 0 93 c0 51 2 93 5
93 2 0 38 -21 80 -46z m365 -48 l0 -94 -80 -45 -80 -46 0 94 0 95 77 45 c43
25 79 45 80 45 2 0 3 -42 3 -94z"/>
<path d="M1390 874 c-51 -30 -95 -54 -99 -55 -3 0 -37 -21 -76 -47 l-70 -47
-3 -185 c-1 -102 0 -195 3 -207 5 -20 94 -79 231 -154 17 -10 46 -27 65 -38
48 -29 69 -27 141 18 35 21 106 64 159 95 54 31 100 63 103 72 3 9 6 99 6 200
0 178 -1 186 -22 207 -28 27 -298 186 -326 192 -12 2 -58 -19 -112 -51z m240
-166 c13 -10 22 -19 19 -21 -15 -12 -149 -87 -154 -87 -4 0 -42 21 -85 47
l-79 47 82 47 82 46 55 -31 c31 -17 66 -39 80 -48z m-238 -201 l38 -22 0 -93
c0 -52 -3 -92 -8 -90 -4 2 -40 21 -79 43 l-73 40 0 98 0 98 43 -26 c23 -14 59
-36 79 -48z m331 -26 c0 -50 -2 -92 -4 -94 -9 -8 -151 -87 -155 -87 -2 0 -4
42 -4 93 l0 92 78 46 c42 25 79 44 81 43 2 -2 3 -44 4 -93z"/>
</g>
</svg>
